HIERARCHY
ROOT Hips
{
	OFFSET 0.000000 0.000000 0.000000
	CHANNELS 6 Xposition Yposition Zposition Yrotation Xrotation Zrotation
	JOINT Chest
	{
		OFFSET 0.000000 -0.009281 11.569106
		CHANNELS 3 Yrotation Xrotation Zrotation
		JOINT Chest2
		{
			OFFSET -0.000000 0.016865 9.269641
			CHANNELS 3 Yrotation Xrotation Zrotation
			JOINT Chest3
			{
				OFFSET -0.000000 0.000001 8.374491
				CHANNELS 3 Yrotation Xrotation Zrotation
				JOINT Chest4
				{
					OFFSET -0.000000 0.000001 8.374493
					CHANNELS 3 Yrotation Xrotation Zrotation
					JOINT Neck
					{
						OFFSET -0.000000 0.000002 12.152554
						CHANNELS 3 Yrotation Xrotation Zrotation
						JOINT Head
						{
							OFFSET -0.000000 0.040101 7.802319
							CHANNELS 3 Yrotation Xrotation Zrotation
							End Site
							{
								OFFSET -0.000000 0.020947 14.853096
							}
						}
					}
					JOINT RightCollar
					{
						OFFSET 2.894404 0.000001 6.791374
						CHANNELS 3 Yrotation Xrotation Zrotation
						JOINT RightShoulder
						{
							OFFSET 13.574684 0.000001 0.000000
							CHANNELS 3 Yrotation Xrotation Zrotation
							JOINT RightElbow
							{
								OFFSET 23.923903 0.000002 0.000000
								CHANNELS 3 Yrotation Xrotation Zrotation
								JOINT RightWrist
								{
									OFFSET 19.846718 0.012767 0.000000
									CHANNELS 3 Yrotation Xrotation Zrotation
									End Site
									{
										OFFSET 14.973145 0.000001 0.000000
									}
								}
							}
						}
					}
					JOINT LeftCollar
					{
						OFFSET -2.894404 0.000001 6.791374
						CHANNELS 3 Yrotation Xrotation Zrotation
						JOINT LeftShoulder
						{
							OFFSET -13.574684 -0.000001 0.000000
							CHANNELS 3 Yrotation Xrotation Zrotation
							JOINT LeftElbow
							{
								OFFSET -23.923903 -0.000002 0.000000
								CHANNELS 3 Yrotation Xrotation Zrotation
								JOINT LeftWrist
								{
									OFFSET -19.846718 0.012763 0.000000
									CHANNELS 3 Yrotation Xrotation Zrotation
									End Site
									{
										OFFSET -14.973145 -0.000001 0.000000
									}
								}
							}
						}
					}
				}
			}
		}
	}
	JOINT RightHip
	{
		OFFSET 9.469263 0.004643 0.045487
		CHANNELS 3 Yrotation Xrotation Zrotation
		JOINT RightKnee
		{
			OFFSET 0.000000 0.002661 -40.478676
			CHANNELS 3 Yrotation Xrotation Zrotation
			JOINT RightAnkle
			{
				OFFSET 0.000000 0.049106 -35.224068
				CHANNELS 3 Yrotation Xrotation Zrotation
				JOINT RightToe
				{
					OFFSET -0.000001 12.539529 -6.151390
					CHANNELS 3 Yrotation Xrotation Zrotation
					End Site
					{
						OFFSET -0.000001 5.044994 -1.291870
					}
				}
			}
		}
	}
	JOINT LeftHip
	{
		OFFSET -9.469263 0.004641 0.045487
		CHANNELS 3 Yrotation Xrotation Zrotation
		JOINT LeftKnee
		{
			OFFSET 0.000000 0.002661 -40.478676
			CHANNELS 3 Yrotation Xrotation Zrotation
			JOINT LeftAnkle
			{
				OFFSET 0.000000 0.049106 -35.224068
				CHANNELS 3 Yrotation Xrotation Zrotation
				JOINT LeftToe
				{
					OFFSET -0.000001 12.539529 -6.151390
					CHANNELS 3 Yrotation Xrotation Zrotation
					End Site
					{
						OFFSET -0.000001 5.044994 -1.291870
					}
				}
			}
		}
	}
}
MOTION
Frames: 9
Frame Time: 0.016667
-8.832903 -50.798981 83.219772 -2.899176 2.225388 -120.542225 -1.817417 -3.876538 4.028760 -0.598010 -1.801621 1.504788 -0.598010 -1.801621 1.504791 -0.444036 -1.352699 1.126739 0.991273 -11.881725 -3.421100 0.425618 14.089119 -6.122489 10.220343 6.125747 -1.920749 43.222038 -16.602896 -15.223112 -27.908380 -61.323945 87.153630 -45.758586 42.046105 50.275141 -7.829355 5.322648 -6.990583 -40.833009 -8.565249 20.187751 -3.173625 -65.110486 -59.427475 30.153933 16.148492 -75.528054 -8.175979 4.392491 -3.861399 6.154555 -20.751042 -16.943903 -2.812733 9.910763 -4.112985 2.190168 0.920439 0.222765 -1.013738 0.014228 11.253551 -0.507759 -7.268581 7.702287 0.048200 1.722353 10.180146 0.637456 1.627477 0.284445 
-8.917264 -50.205753 83.231430 -2.808292 2.356346 -120.120993 -1.907353 -3.825664 3.857889 -0.579088 -1.791848 1.478959 -0.579088 -1.791848 1.478961 -0.429946 -1.345297 1.107432 0.994370 -11.873737 -3.474499 0.408267 14.102417 -6.223628 10.205413 6.056880 -1.810062 43.351033 -16.372944 -15.558100 -27.912507 -61.091247 87.141275 -45.656871 41.877676 50.305132 -7.796435 5.190426 -7.126911 -40.660061 -8.609552 20.155053 -3.056006 -65.177961 -59.831556 30.414460 15.876976 -75.286908 -8.345116 4.638384 -3.556983 5.609147 -20.533379 -15.499328 -3.013171 9.861131 -5.144087 2.146844 0.447367 0.240592 -1.171188 0.757582 9.453687 0.328516 -7.950707 4.874213 -0.305604 1.274498 10.930657 0.290034 1.605459 0.178098 
-9.276287 -49.667400 83.228714 -2.585062 2.372500 -119.652087 -1.878563 -3.717803 3.636959 -0.549868 -1.760425 1.457115 -0.549868 -1.760424 1.457115 -0.408174 -1.321639 1.091166 1.011634 -11.869263 -3.532255 0.416303 14.109684 -6.326894 10.130555 5.809113 -1.813634 43.340395 -15.849761 -15.667062 -28.109020 -61.053039 87.351180 -45.513109 41.627766 50.337545 -7.878942 5.295592 -7.037626 -40.355445 -8.969340 20.102647 -3.284821 -65.379684 -59.869716 30.675793 15.788448 -75.027156 -8.192827 5.067544 -3.112394 5.030746 -20.316833 -13.997222 -3.326534 9.680116 -6.129072 2.099153 0.102511 0.260762 -1.083318 1.589974 6.552623 1.141094 -8.556278 1.626030 -0.637675 0.744024 11.462709 -0.125421 1.574816 0.089181 
-9.544946 -49.249443 83.202515 -2.453659 2.285689 -119.349045 -1.871640 -3.742200 3.478646 -0.517618 -1.734687 1.465125 -0.517618 -1.734687 1.465125 -0.384028 -1.302267 1.097293 1.045314 -11.849218 -3.579835 0.459379 14.146887 -6.404163 10.105783 5.891251 -1.793958 43.237078 -15.528785 -15.827609 -28.307461 -61.142057 87.605557 -45.343099 41.434240 50.405334 -7.938445 5.329359 -7.046092 -40.234670 -9.062795 20.132787 -3.687539 -65.464897 -59.557925 30.804300 15.805181 -74.874753 -7.891308 5.393888 -2.629905 3.912172 -20.039900 -12.166315 -2.256496 9.599361 -4.958738 1.203197 -0.165497 0.226353 -0.726876 2.275504 3.177791 1.921890 -8.779461 -1.698172 -0.973102 0.060095 11.389698 -0.674899 1.421136 0.015059 
-9.945521 -49.101353 83.184402 -2.283183 2.137674 -119.135342 -1.824475 -3.681445 3.281889 -0.479263 -1.731977 1.484284 -0.479263 -1.731977 1.484283 -0.355215 -1.300158 1.111772 1.080018 -11.835841 -3.592932 0.519531 14.172862 -6.414728 10.086262 6.008558 -1.740900 43.099805 -15.502327 -15.812760 -28.464858 -61.192088 87.840290 -45.265211 41.403592 50.470914 -7.962606 5.450025 -6.987419 -40.450552 -9.057861 20.371951 -3.920869 -65.341476 -59.248633 30.827615 15.701807 -74.858894 -7.501444 5.133679 -2.084217 1.934455 -18.888463 -7.981912 0.154969 9.413403 -3.650296 -0.226591 -0.472243 0.323671 -0.188431 2.433676 -0.285590 2.711349 -8.011207 -4.990286 -1.276900 -0.669928 10.570194 -1.295411 1.105174 -0.049867 
-10.314795 -49.066471 83.174759 -2.152671 2.052899 -119.031892 -1.835135 -3.588974 3.114952 -0.464058 -1.730491 1.494417 -0.464058 -1.730492 1.494421 -0.343787 -1.299012 1.119418 1.130575 -11.851044 -3.576832 0.623903 14.147407 -6.361612 10.109051 5.988303 -1.659376 42.937134 -15.692117 -15.604995 -28.514889 -61.143218 87.979291 -45.365789 41.504710 50.436395 -7.956617 5.500620 -6.908538 -40.797341 -8.760146 20.677506 -3.707956 -65.171910 -59.289826 30.663018 15.494557 -74.954865 -6.743179 4.907293 0.039355 0.578960 -17.959631 -3.087820 1.884162 10.070226 -3.586997 -1.491033 -1.007122 0.433650 0.369912 2.355375 -4.011625 3.409973 -6.733603 -7.892860 -1.628072 -1.410974 9.599938 -1.868664 0.852754 -0.306604 
-10.709290 -49.051655 83.119583 -2.019623 2.234569 -118.961514 -2.066758 -3.387333 2.930225 -0.480484 -1.702685 1.506605 -0.480484 -1.702685 1.506610 -0.356140 -1.278208 1.128536 1.218674 -11.884906 -3.555518 0.803141 14.089012 -6.281814 10.135442 5.887831 -1.687272 42.825990 -15.995135 -15.336520 -28.459279 -61.061789 87.995014 -45.474488 41.547218 50.368506 -7.911700 5.372487 -6.937016 -41.057172 -8.162698 20.887367 -3.198068 -65.087987 -59.598988 30.480914 15.346868 -75.208135 -6.269855 5.273335 4.288124 0.026738 -17.593095 -0.587889 3.708251 10.859563 -2.760552 -2.565512 -1.397508 0.583401 0.788075 2.408149 -8.201958 3.771538 -5.420092 -10.054635 -1.993172 -2.045184 8.793816 -2.236052 0.746549 -0.699786 
-11.082380 -48.846153 83.067299 -1.875300 2.368190 -119.030116 -2.262319 -3.231660 2.881714 -0.506689 -1.646097 1.524528 -0.506688 -1.646097 1.524531 -0.375886 -1.235847 1.141956 1.323004 -11.921720 -3.544311 1.009117 14.025361 -6.214405 10.125376 5.846703 -1.780973 42.798754 -16.196180 -15.203993 -28.388604 -61.087108 87.978314 -45.501942 41.489380 50.329598 -7.887275 5.329773 -6.987685 -41.172548 -7.761228 21.007556 -2.617935 -65.045620 -60.016421 30.335944 15.216031 -75.481547 -5.870894 5.835277 9.437563 -0.393434 -17.857415 0.196428 6.013459 12.132843 -0.775967 -3.401369 -1.845446 0.742697 1.191037 2.664506 -11.902533 3.850170 -4.502268 -11.164685 -2.535538 -2.449257 7.669394 -2.129368 0.759681 -1.156117 
-11.502927 -49.068405 82.971382 -1.739535 2.588986 -119.155696 -2.531636 -3.069785 2.896593 -0.524442 -1.571943 1.540399 -0.524442 -1.571943 1.540401 -0.389347 -1.180289 1.153881 1.408918 -11.943418 -3.538057 1.177015 13.988708 -6.164933 10.140521 5.866838 -1.697735 42.785514 -16.128025 -15.360518 -28.355698 -61.194895 88.030934 -45.459328 41.348633 50.319995 -7.920275 5.539846 -6.901624 -41.176079 -7.858793 21.072032 -2.100919 -65.041685 -60.439128 30.180775 15.072551 -75.605297 -5.347393 6.544931 13.900457 -0.637750 -18.754844 0.425846 7.859118 13.793867 1.691293 -3.883486 -2.337423 0.744220 1.650027 2.998003 -14.300740 3.697606 -3.981630 -10.934608 -3.584765 -2.583237 6.019972 -1.489493 0.947811 -1.852788 
